<svg xmlns="http://www.w3.org/2000/svg" width="83" height="83" viewBox="0 0 83 83" fill="none">
<path d="M41.5 2L1.5 38V78L41.5 43L82 78V38L41.5 2Z" fill="white"/>
<path d="M82.5404 36.3209L42.4241 0.354772C41.8971 -0.118257 41.1031 -0.118257 40.5759 0.354772L0.459861 36.3209C0.167905 36.5824 0.000610352 36.9572 0.000610352 37.3501V51.1832V65.0164V78.8495C0.000610352 79.3959 0.321583 79.8897 0.820874 80.1125C1.31465 80.3365 1.90132 80.2439 2.30789 79.8787L41.5 44.7411L80.6924 79.8789C80.9524 80.1113 81.2831 80.2331 81.6164 80.2331C81.8073 80.2331 81.9996 80.1943 82.1794 80.1128C82.6788 79.8901 82.9996 79.3963 82.9996 78.8498V65.0167V51.1836V37.3505C82.9996 36.9573 82.8323 36.5824 82.5404 36.3209ZM80.2329 75.7524L42.4241 41.8543C42.1614 41.6178 41.8307 41.5001 41.5001 41.5001C41.1696 41.5001 40.8389 41.6176 40.5761 41.8543L2.7673 75.7524V65.6348L41.5001 30.908L80.2329 65.6348V75.7524ZM80.2329 48.086L42.4241 14.1879C41.8971 13.7149 41.1031 13.7149 40.5759 14.1879L2.7673 48.086V37.9671L41.5001 3.24174L80.2329 37.9671V48.086Z" fill="#DC2626"/>
<path d="M56.8624 60.8749L47.3273 59.8651L42.7401 50.572C42.2753 49.6257 40.7246 49.6257 40.2599 50.572L35.6727 59.8651L26.1375 60.8749C25.6243 60.9289 25.1843 61.2649 24.9948 61.7464C24.8066 62.2278 24.9021 62.7728 25.2438 63.1616L32.0678 70.951L30.4493 81.4046C30.369 81.9304 30.596 82.4559 31.033 82.7561C31.473 83.0577 32.0428 83.0812 32.5035 82.8169L41.5006 77.6765L50.4963 82.8169C50.7108 82.9387 50.9473 82.9995 51.1838 82.9995C51.4577 82.9995 51.7316 82.9179 51.9668 82.756C52.404 82.4558 52.6308 81.9302 52.5505 81.4045L50.932 70.9508L57.756 63.1614C58.0977 62.7727 58.1931 62.2277 58.0049 61.7462C57.8156 61.2651 57.3756 60.9289 56.8624 60.8749Z" fill="#DC2626"/>
</svg>