<svg width="100" height="100" viewBox="0 0 100 100" fill="none" xmlns="http://www.w3.org/2000/svg">
<path d="M43.9705 90.4007L52.8234 99.2704H42.1042L30.5235 87.8142H37.4384C39.9029 87.8142 42.2477 88.8 43.9705 90.4007ZM40.8839 12.0613C44.6883 12.0613 47.8945 15.2651 47.8945 19.0815C47.8945 22.9002 44.6883 25.9797 40.8839 25.9797C37.0556 25.9797 33.9929 22.9002 33.9929 19.0815C33.9929 15.2651 37.0556 12.0613 40.8839 12.0613ZM86.9433 75.743L84.4789 69.2157C83.3782 66.5048 80.9137 64.6576 77.8272 64.6576H76.7265V8.36699H23.2736V39.5295H30.2842L38.2998 29.5519C39.9029 27.7048 42.3674 26.4725 45.0711 26.4725H62.2028C64.9066 26.4725 67.2514 27.9488 68.4717 30.2913L73.5203 39.898C73.7835 40.2689 73.9031 40.7617 73.9031 41.3767C73.9031 43.1018 72.4197 44.5805 70.6969 44.5805C69.3331 44.5805 68.3521 43.9632 67.73 42.8554L63.1838 34.11H55.7904L61.4611 48.2748L63.1838 66.3828H77.8272C80.172 66.3828 82.0144 67.8591 82.8758 69.8307L84.4789 74.0203H59.3555C57.5131 74.0203 55.91 72.6636 55.7904 70.8164L54.0677 54.9265L40.501 83.0096C39.7832 84.6128 38.0605 85.7206 36.0745 85.7206H29.5425L46.1717 51.3542L41.0035 38.4217L36.0745 44.4561C34.8543 46.0592 32.7487 47.167 30.5235 47.167H23.2736V87.8142L34.8543 99.2704H0.734375V0.729492H99.2657V99.2704H88.1875L76.7265 87.8142V75.743H86.9433Z" fill="#00B06B"/>
</svg>
