<svg xmlns="http://www.w3.org/2000/svg" width="99" height="99" viewBox="0 0 99 99" fill="none">
<path d="M0 0V98.5194H98.5074V0H0Z" fill="white"/>
<path d="M43.2361 89.6712L52.0891 98.5409H41.3698L29.7891 87.0847H36.704C39.1685 87.0847 41.5133 88.0705 43.2361 89.6712ZM40.1495 11.3318C43.9539 11.3318 47.1601 14.5356 47.1601 18.352C47.1601 22.1708 43.9539 25.2502 40.1495 25.2502C36.3212 25.2502 33.2585 22.1708 33.2585 18.352C33.2585 14.5356 36.3212 11.3318 40.1495 11.3318ZM86.209 75.0135L83.7445 68.4862C82.6438 65.7753 80.1794 63.9281 77.0928 63.9281H75.9921V7.6375H22.5392V38.8H29.5498L37.5654 28.8225C39.1685 26.9753 41.633 25.7431 44.3367 25.7431H61.4685C64.1722 25.7431 66.5171 27.2193 67.7373 29.5618L72.7859 39.1685C73.0491 39.5394 73.1688 40.0323 73.1688 40.6472C73.1688 42.3723 71.6853 43.851 69.9625 43.851C68.5987 43.851 67.6177 43.2337 66.9956 42.1259L62.4495 33.3806H55.056L60.7267 47.5453L62.4495 65.6533H77.0928C79.4376 65.6533 81.28 67.1296 82.1414 69.1012L83.7445 73.2908H58.6211C56.7788 73.2908 55.1757 71.9341 55.056 70.087L53.3333 54.197L39.7667 82.2802C39.0489 83.8833 37.3261 84.9911 35.3402 84.9911H28.8081L45.4374 50.6247L40.2691 37.6922L35.3402 43.7266C34.1199 45.3297 32.0143 46.4375 29.7891 46.4375H22.5392V87.0847L34.1199 98.5409H0V0H98.5314V98.5409H87.4532L75.9921 87.0847V75.0135H86.209Z" fill="#00B06B"/>
</svg>