<svg width="111" height="111" viewBox="0 0 111 111" fill="none" xmlns="http://www.w3.org/2000/svg">
<path d="M110.881 55.7143C110.881 66.5923 107.655 77.226 101.611 86.2707C95.568 95.3154 86.9781 102.365 76.9282 106.528C66.8783 110.691 55.8196 111.78 45.1507 109.658C34.4817 107.535 24.6817 102.297 16.9898 94.6052C9.29788 86.9133 4.05964 77.1133 1.93745 66.4443C-0.184737 55.7754 0.904446 44.7167 5.06726 34.6668C9.23008 24.6168 16.2796 16.027 25.3243 9.98353C34.369 3.94005 45.0027 0.714355 55.8806 0.714355C63.1033 0.714355 70.2553 2.13697 76.9282 4.90098C83.6011 7.66499 89.6643 11.7163 94.7715 16.8235C99.8787 21.9307 103.93 27.9939 106.694 34.6668C109.458 41.3397 110.881 48.4916 110.881 55.7143ZM58.201 40.271C58.2065 38.7698 57.6179 37.3274 56.5636 36.2588C55.5093 35.1902 54.0749 34.5821 52.5738 34.5675L31.3922 34.4285C29.891 34.4229 28.4486 35.0116 27.38 36.0659C26.3114 37.1202 25.7033 38.5545 25.6886 40.0556L25.4385 78.0006C25.4348 79.5005 26.0243 80.9411 27.0784 82.0083C28.1325 83.0754 29.5658 83.6825 31.0657 83.6972L52.2404 83.843C53.7415 83.8486 55.1839 83.26 56.2526 82.2057C57.3212 81.1514 57.9292 79.717 57.9439 78.2159L58.201 40.271ZM35.9703 76.4375C36.6963 76.4356 37.3922 76.1469 37.9062 75.6342C38.4202 75.1215 38.7107 74.4263 38.7144 73.7003L38.8533 53.79C38.8561 53.4281 38.7874 53.0693 38.6513 52.734C38.5151 52.3988 38.3142 52.0936 38.0599 51.8362C37.8056 51.5787 37.5031 51.3739 37.1695 51.2335C36.836 51.0931 36.4781 51.0199 36.1162 51.0181H36.1023C35.3751 51.0181 34.6774 51.306 34.1619 51.819C33.6464 52.3319 33.3549 53.0281 33.3513 53.7553L33.2123 73.6656C33.2105 74.0269 33.2798 74.385 33.4164 74.7194C33.553 75.0539 33.7541 75.3582 34.0083 75.6149C34.2624 75.8717 34.5647 76.0759 34.8977 76.2158C35.2308 76.3557 35.5882 76.4287 35.9495 76.4305H35.9703V76.4375ZM41.9448 39.5624C42.5276 39.5665 43.0962 39.7435 43.5784 40.0709C44.0606 40.3983 44.4349 40.8614 44.6538 41.4016C44.8727 41.9418 44.9264 42.5348 44.8081 43.1056C44.6898 43.6763 44.4049 44.1991 43.9894 44.6078C43.5738 45.0166 43.0464 45.2928 42.4738 45.4017C41.9011 45.5105 41.3091 45.447 40.7726 45.2192C40.2361 44.9914 39.7792 44.6095 39.4599 44.1219C39.1405 43.6344 38.9729 43.063 38.9784 42.4802C38.9857 41.7002 39.3022 40.9549 39.8583 40.4079C40.4144 39.8609 41.1648 39.5568 41.9448 39.5624ZM39.0687 29.5447C39.0673 30.0891 39.2275 30.6217 39.529 31.075C39.8304 31.5283 40.2596 31.882 40.7621 32.0913C41.2647 32.3006 41.8181 32.3561 42.3522 32.2507C42.8863 32.1453 43.3771 31.8839 43.7626 31.4994C44.148 31.1149 44.4107 30.6248 44.5174 30.0909C44.6241 29.5571 44.5701 29.0036 44.362 28.5005C44.154 27.9974 43.8014 27.5673 43.3489 27.2647C42.8963 26.9621 42.3641 26.8006 41.8197 26.8006C41.0913 26.8006 40.3926 27.0895 39.8769 27.6039C39.3612 28.1183 39.0705 28.8163 39.0687 29.5447ZM42.6812 23.9523C43.1121 24.2848 43.632 24.4819 44.175 24.5188C44.718 24.5557 45.2598 24.4307 45.7317 24.1596C46.2037 23.8885 46.5846 23.4835 46.8263 22.9959C47.0681 22.5083 47.1597 21.9599 47.0897 21.4201C47.0197 20.8804 46.7911 20.3736 46.433 19.9638C46.0748 19.5539 45.6032 19.2596 45.0777 19.1179C44.5522 18.9762 43.9964 18.9936 43.4808 19.1678C42.9652 19.342 42.5128 19.6653 42.181 20.0967C41.9591 20.3821 41.796 20.7086 41.701 21.0574C41.606 21.4061 41.5811 21.7703 41.6276 22.1287C41.6741 22.4872 41.7911 22.8329 41.972 23.1459C42.1528 23.4589 42.3939 23.733 42.6812 23.9523ZM50.2257 73.7767L50.3577 53.8664C50.3605 53.5046 50.2918 53.1457 50.1556 52.8104C50.0195 52.4752 49.8185 52.1701 49.5642 51.9126C49.31 51.6551 49.0074 51.4503 48.6739 51.3099C48.3404 51.1696 47.9824 51.0964 47.6206 51.0945C46.8945 51.0945 46.191 51.3815 45.6757 51.8929C45.1603 52.4043 44.8681 53.0987 44.8626 53.8247L44.7306 73.742C44.7269 74.4704 45.0122 75.1706 45.524 75.6889C46.0359 76.2072 46.7324 76.5014 47.4608 76.5069H47.4816C48.2076 76.507 48.9042 76.22 49.4196 75.7086C49.9349 75.1971 50.2202 74.5027 50.2257 73.7767ZM48.7182 18.0543C48.7182 18.5984 48.8795 19.1302 49.1818 19.5826C49.4841 20.0351 49.9138 20.3877 50.4165 20.5959C50.9191 20.8041 51.4723 20.8586 52.0059 20.7524C52.5396 20.6463 53.0298 20.3843 53.4145 19.9995C53.7993 19.6148 54.0613 19.1246 54.1674 18.591C54.2736 18.0573 54.2191 17.5042 54.0109 17.0015C53.8026 16.4988 53.45 16.0691 52.9976 15.7668C52.5452 15.4646 52.0133 15.3032 51.4692 15.3032C50.7396 15.3032 50.0399 15.5931 49.524 16.109C49.008 16.6249 48.7182 17.3246 48.7182 18.0543ZM56.4017 23.4591C56.7341 23.8895 57.1867 24.2117 57.7022 24.385C58.2177 24.5583 58.773 24.5749 59.2979 24.4327C59.8229 24.2906 60.2939 23.996 60.6515 23.5863C61.0091 23.1765 61.2372 22.67 61.3071 22.1306C61.3769 21.5913 61.2853 21.0433 61.0439 20.556C60.8025 20.0687 60.422 19.6639 59.9506 19.3927C59.4792 19.1215 58.938 18.9961 58.3953 19.0324C57.8527 19.0687 57.333 19.265 56.9019 19.5965C56.6143 19.8165 56.3731 20.0912 56.1922 20.4047C56.0112 20.7183 55.8942 21.0646 55.8477 21.4237C55.8012 21.7827 55.8262 22.1474 55.9213 22.4967C56.0163 22.8461 56.1796 23.1731 56.4017 23.4591ZM58.3677 29.5447C58.3663 30.0891 58.5265 30.6217 58.8279 31.075C59.1294 31.5283 59.5586 31.882 60.0611 32.0913C60.5637 32.3006 61.117 32.3561 61.6512 32.2507C62.1853 32.1453 62.6761 31.8839 63.0615 31.4994C63.447 31.1149 63.7097 30.6248 63.8164 30.0909C63.9231 29.5571 63.869 29.0036 63.661 28.5005C63.453 27.9974 63.1004 27.5673 62.6478 27.2647C62.1953 26.9621 61.6631 26.8006 61.1187 26.8006C60.3903 26.8006 59.6916 27.0895 59.1759 27.6039C58.6602 28.1183 58.3695 28.8163 58.3677 29.5447ZM86.6701 80.9183C88.0904 80.4273 89.2585 79.3936 89.9186 78.0435C90.5787 76.6934 90.6771 75.1367 90.1922 73.7142L77.8542 37.8326C77.3618 36.4135 76.3275 35.2471 74.9776 34.5883C73.6276 33.9296 72.0717 33.8322 70.6501 34.3174L63.182 36.8878C63.5306 37.9957 63.704 39.1512 63.6961 40.3127L63.6822 42.4176C64.3335 42.5162 64.933 42.8302 65.3849 43.3095C65.8368 43.7888 66.1149 44.4058 66.1749 45.0618C66.2349 45.7178 66.0733 46.375 65.7159 46.9283C65.3585 47.4816 64.8259 47.8992 64.2032 48.1142C64.0228 48.1783 63.8367 48.2248 63.6475 48.2532L63.5919 56.1312C63.8056 56.3859 63.9705 56.678 64.0782 56.9926L70.5529 75.8261C70.6705 76.1678 70.7198 76.5293 70.6978 76.89C70.6757 77.2506 70.5829 77.6035 70.4245 77.9283C70.2662 78.2531 70.0454 78.5435 69.7747 78.783C69.5041 79.0225 69.189 79.2063 68.8473 79.324C68.5057 79.4417 68.1442 79.4909 67.7835 79.4689C67.4228 79.4469 67.07 79.354 66.7452 79.1956C66.4204 79.0373 66.13 78.8165 65.8905 78.5459C65.651 78.2753 65.4672 77.9601 65.3495 77.6185L63.4877 72.1859L63.446 78.2506C63.4259 81.1093 62.3064 83.8507 60.3198 85.9063C61.0461 86.8418 62.0462 87.5273 63.1807 87.8673C64.3152 88.2073 65.5275 88.1848 66.6486 87.8029L86.6701 80.9183ZM81.432 72.0886C81.5716 72.4349 81.6392 72.806 81.6308 73.1792C81.6224 73.5525 81.538 73.9202 81.383 74.2598C81.2279 74.5995 81.0053 74.904 80.7287 75.1548C80.4522 75.4057 80.1275 75.5976 79.7744 75.7189C79.4213 75.8403 79.0471 75.8884 78.6748 75.8605C78.3025 75.8326 77.9397 75.7292 77.6087 75.5566C77.2776 75.384 76.9851 75.1458 76.749 74.8565C76.513 74.5673 76.3383 74.233 76.2356 73.874L69.7609 55.0474C69.6246 54.702 69.5596 54.3325 69.5699 53.9612C69.5803 53.59 69.6656 53.2247 69.8209 52.8873C69.9762 52.55 70.1982 52.2475 70.4736 51.9983C70.7489 51.749 71.0718 51.5581 71.4229 51.437C71.774 51.3159 72.146 51.2672 72.5164 51.2937C72.8868 51.3202 73.2481 51.4214 73.5783 51.5913C73.9086 51.7612 74.201 51.9962 74.438 52.2821C74.675 52.5681 74.8516 52.899 74.9573 53.2551L81.432 72.0886Z" fill="#FF6B00"/>
</svg>
