<svg width="75" height="72" viewBox="0 0 75 72" fill="none" xmlns="http://www.w3.org/2000/svg">
<path d="M30.8809 8.10694C40.823 -1.83513 56.9424 -1.83513 66.8844 8.10694C76.8265 18.049 76.8265 34.1686 66.8844 44.1106C59.5319 51.4632 48.8074 53.3729 39.7043 49.8606L38.65 49.4308L38.5724 49.4118H36.1825V55.5939C36.1825 58.129 34.2558 60.2138 31.7872 60.4645L31.2867 60.4897H25.1044V66.6722C25.1044 69.2069 23.1779 71.292 20.7092 71.5427L20.2086 71.568H4.60993C2.57115 71.568 0.892084 70.0252 0.67727 68.0435L0.654053 67.6126V57.3846C0.654053 56.021 1.12797 54.7065 1.98456 53.6611L2.37484 53.2302L23.919 31.6858L23.9549 31.5398C23.9651 31.459 23.9669 31.3497 23.9411 31.2232C22.29 23.1394 24.5984 14.3896 30.8809 8.10694ZM47.4981 19.1852C45.2037 21.4795 45.2037 25.1993 47.4981 27.4937C49.7925 29.788 53.5126 29.788 55.8066 27.4937C58.1009 25.1993 58.1009 21.4795 55.8066 19.1852C53.5126 16.8908 49.7925 16.8908 47.4981 19.1852Z" fill="#09244B"/>
</svg>
