<svg width="110" height="110" viewBox="0 0 110 110" fill="none" xmlns="http://www.w3.org/2000/svg">
<path d="M110 55C110 65.878 106.774 76.5116 100.731 85.5563C94.6874 94.601 86.0975 101.651 76.0476 105.813C65.9977 109.976 54.939 111.065 44.2701 108.943C33.6011 106.821 23.801 101.583 16.1091 93.8909C8.41726 86.199 3.17902 76.3989 1.05683 65.7299C-1.06535 55.061 0.0238306 44.0023 4.18665 33.9524C8.34947 23.9025 15.399 15.3126 24.4437 9.26917C33.4884 3.22569 44.122 0 55 0C62.2227 0 69.3747 1.42262 76.0476 4.18663C82.7205 6.95063 88.7837 11.0019 93.8909 16.1091C98.9981 21.2163 103.049 27.2795 105.813 33.9524C108.577 40.6253 110 47.7773 110 55ZM57.3203 39.5566C57.3259 38.0555 56.7373 36.6131 55.683 35.5444C54.6286 34.4758 53.1943 33.8678 51.6932 33.8531L30.5116 33.7142C29.0104 33.7086 27.568 34.2972 26.4994 35.3515C25.4307 36.4058 24.8227 37.8402 24.808 39.3413L24.5579 77.2862C24.5542 78.7862 25.1436 80.2268 26.1978 81.2939C27.2519 82.3611 28.6852 82.9681 30.1851 82.9828L51.3597 83.1287C52.8609 83.1343 54.3033 82.5456 55.3719 81.4913C56.4406 80.437 57.0486 79.0027 57.0633 77.5016L57.3203 39.5566ZM35.0897 75.7231C35.8157 75.7213 36.5116 75.4325 37.0256 74.9198C37.5396 74.4071 37.8301 73.712 37.8338 72.986L37.9727 53.0756C37.9755 52.7138 37.9068 52.3549 37.7707 52.0197C37.6345 51.6844 37.4335 51.3793 37.1793 51.1218C36.925 50.8643 36.6225 50.6595 36.2889 50.5191C35.9554 50.3788 35.5975 50.3056 35.2356 50.3038H35.2217C34.4945 50.3038 33.7968 50.5917 33.2813 51.1046C32.7658 51.6175 32.4743 52.3137 32.4706 53.0409L32.3317 72.9512C32.3299 73.3125 32.3992 73.6706 32.5358 74.0051C32.6724 74.3395 32.8735 74.6438 33.1276 74.9006C33.3818 75.1573 33.6841 75.3615 34.0171 75.5014C34.3502 75.6414 34.7076 75.7143 35.0689 75.7162H35.0897V75.7231ZM41.0642 38.848C41.647 38.8522 42.2155 39.0292 42.6978 39.3566C43.18 39.684 43.5542 40.1471 43.7731 40.6873C43.992 41.2275 44.0458 41.8205 43.9275 42.3912C43.8092 42.9619 43.5243 43.4848 43.1088 43.8935C42.6932 44.3022 42.1658 44.5785 41.5931 44.6873C41.0205 44.7961 40.4285 44.7326 39.892 44.5048C39.3555 44.277 38.8986 43.8951 38.5792 43.4076C38.2599 42.92 38.0923 42.3486 38.0978 41.7658C38.1051 40.9858 38.4216 40.2406 38.9777 39.6936C39.5338 39.1466 40.2842 38.8425 41.0642 38.848ZM38.1881 28.8304C38.1867 29.3748 38.3469 29.9073 38.6483 30.3606C38.9498 30.814 39.379 31.1677 39.8815 31.3769C40.3841 31.5862 40.9375 31.6417 41.4716 31.5363C42.0057 31.431 42.4965 31.1695 42.8819 30.785C43.2674 30.4006 43.5301 29.9104 43.6368 29.3766C43.7435 28.8427 43.6894 28.2892 43.4814 27.7861C43.2734 27.283 42.9208 26.853 42.4683 26.5504C42.0157 26.2478 41.4835 26.0863 40.9391 26.0863C40.2107 26.0863 39.512 26.3752 38.9963 26.8896C38.4806 27.404 38.1899 28.1019 38.1881 28.8304ZM41.8006 23.238C42.2315 23.5704 42.7514 23.7675 43.2944 23.8044C43.8374 23.8413 44.3792 23.7163 44.8511 23.4452C45.3231 23.1742 45.704 22.7692 45.9457 22.2816C46.1874 21.7939 46.2791 21.2455 46.2091 20.7058C46.1391 20.1661 45.9105 19.6592 45.5524 19.2494C45.1942 18.8396 44.7225 18.5452 44.197 18.4035C43.6715 18.2618 43.1158 18.2792 42.6002 18.4535C42.0846 18.6277 41.6322 18.9509 41.3004 19.3823C41.0785 19.6677 40.9154 19.9942 40.8204 20.343C40.7254 20.6918 40.7005 21.0559 40.747 21.4144C40.7935 21.7729 40.9105 22.1186 41.0914 22.4316C41.2722 22.7446 41.5132 23.0186 41.8006 23.238ZM49.3451 73.0624L49.4771 53.1521C49.4798 52.7902 49.4112 52.4314 49.275 52.0961C49.1389 51.7608 48.9379 51.4557 48.6836 51.1982C48.4294 50.9407 48.1268 50.7359 47.7933 50.5956C47.4598 50.4552 47.1018 50.382 46.7399 50.3802C46.0139 50.3802 45.3104 50.6671 44.795 51.1786C44.2797 51.69 43.9875 52.3844 43.982 53.1104L43.85 73.0276C43.8463 73.7561 44.1316 74.4562 44.6434 74.9746C45.1552 75.4929 45.8517 75.7871 46.5802 75.7926H46.601C47.327 75.7926 48.0236 75.5056 48.539 74.9942C49.0543 74.4828 49.3396 73.7884 49.3451 73.0624ZM47.8376 17.3399C47.8376 17.884 47.9989 18.4159 48.3012 18.8683C48.6035 19.3207 49.0332 19.6733 49.5358 19.8815C50.0385 20.0898 50.5917 20.1442 51.1253 20.0381C51.659 19.9319 52.1492 19.6699 52.5339 19.2852C52.9186 18.9004 53.1807 18.4103 53.2868 17.8766C53.393 17.343 53.3385 16.7898 53.1302 16.2871C52.922 15.7844 52.5694 15.3548 52.117 15.0525C51.6646 14.7502 51.1327 14.5889 50.5886 14.5889C49.859 14.5889 49.1593 14.8787 48.6433 15.3946C48.1274 15.9105 47.8376 16.6103 47.8376 17.3399ZM55.521 22.7447C55.8535 23.1751 56.3061 23.4973 56.8216 23.6706C57.3371 23.8439 57.8924 23.8605 58.4173 23.7184C58.9422 23.5762 59.4133 23.2817 59.7709 22.8719C60.1285 22.4622 60.3566 21.9556 60.4265 21.4163C60.4963 20.8769 60.4047 20.329 60.1633 19.8417C59.9218 19.3544 59.5414 18.9495 59.07 18.6784C58.5986 18.4072 58.0573 18.2818 57.5147 18.3181C56.9721 18.3543 56.4524 18.5506 56.0212 18.8821C55.7337 19.1021 55.4925 19.3768 55.3116 19.6904C55.1306 20.004 55.0135 20.3503 54.9671 20.7093C54.9206 21.0684 54.9456 21.433 55.0407 21.7824C55.1357 22.1317 55.299 22.4588 55.521 22.7447ZM57.4871 28.8304C57.4857 29.3748 57.6459 29.9073 57.9473 30.3606C58.2488 30.814 58.6779 31.1677 59.1805 31.3769C59.6831 31.5862 60.2364 31.6417 60.7705 31.5363C61.3046 31.431 61.7955 31.1695 62.1809 30.785C62.5664 30.4006 62.8291 29.9104 62.9358 29.3766C63.0425 28.8427 62.9884 28.2892 62.7804 27.7861C62.5724 27.283 62.2198 26.853 61.7672 26.5504C61.3147 26.2478 60.7825 26.0863 60.2381 26.0863C59.5097 26.0863 58.811 26.3752 58.2953 26.8896C57.7796 27.404 57.4889 28.1019 57.4871 28.8304ZM85.7895 80.204C87.2098 79.713 88.3779 78.6793 89.038 77.3291C89.6981 75.979 89.7964 74.4224 89.3116 72.9999L76.9736 37.1182C76.4812 35.6991 75.4469 34.5327 74.0969 33.874C72.747 33.2153 71.1911 33.1178 69.7695 33.603L62.3014 36.1734C62.65 37.2813 62.8234 38.4369 62.8155 39.5983L62.8016 41.7033C63.4529 41.8018 64.0524 42.1158 64.5043 42.5951C64.9562 43.0745 65.2343 43.6914 65.2943 44.3474C65.3543 45.0034 65.1927 45.6606 64.8353 46.2139C64.4778 46.7673 63.9453 47.1848 63.3226 47.3999C63.1422 47.4639 62.9561 47.5104 62.7668 47.5388L62.7113 55.4168C62.925 55.6716 63.0898 55.9636 63.1976 56.2782L69.6722 75.1118C69.7899 75.4534 69.8392 75.8149 69.8171 76.1756C69.7951 76.5363 69.7023 76.8891 69.5439 77.2139C69.3855 77.5387 69.1647 77.8291 68.8941 78.0686C68.6235 78.3081 68.3084 78.4919 67.9667 78.6096C67.6251 78.7273 67.2636 78.7766 66.9029 78.7545C66.5422 78.7325 66.1894 78.6397 65.8646 78.4813C65.5398 78.3229 65.2493 78.1021 65.0099 77.8315C64.7704 77.5609 64.5866 77.2458 64.4689 76.9041L62.6071 71.4715L62.5654 77.5363C62.5452 80.395 61.4258 83.1363 59.4392 85.192C60.1655 86.1275 61.1656 86.813 62.3001 87.153C63.4346 87.4929 64.6469 87.4704 65.768 87.0885L85.7895 80.204ZM80.5514 71.3742C80.691 71.7205 80.7586 72.0916 80.7502 72.4649C80.7418 72.8382 80.6574 73.2058 80.5024 73.5455C80.3473 73.8851 80.1247 74.1896 79.8481 74.4405C79.5716 74.6913 79.2469 74.8833 78.8938 75.0046C78.5406 75.1259 78.1665 75.1741 77.7942 75.1462C77.4219 75.1183 77.0591 75.0149 76.7281 74.8422C76.397 74.6696 76.1045 74.4314 75.8684 74.1422C75.6324 73.8529 75.4577 73.5186 75.3549 73.1596L68.8803 54.3331C68.744 53.9876 68.679 53.6181 68.6893 53.2469C68.6996 52.8756 68.785 52.5103 68.9403 52.173C69.0956 51.8356 69.3176 51.5332 69.5929 51.2839C69.8683 51.0347 70.1912 50.8438 70.5423 50.7227C70.8934 50.6016 71.2653 50.5528 71.6358 50.5793C72.0062 50.6058 72.3674 50.7071 72.6977 50.877C73.028 51.0469 73.3204 51.2818 73.5574 51.5678C73.7944 51.8537 73.971 52.1847 74.0767 52.5407L80.5514 71.3742Z" fill="#167DB7"/>
</svg>
