<svg width="87" height="99" viewBox="0 0 87 99" fill="none" xmlns="http://www.w3.org/2000/svg">
<path fill-rule="evenodd" clip-rule="evenodd" d="M73.6827 0.187012H13.5177C6.36534 0.187012 0.176514 5.69025 0.176514 12.472V80.3823C0.176514 87.1703 5.55622 92.6673 12.7024 92.6673H12.7765V98.9117H24.8824V92.6673H61.9412V98.9117H74.2942V92.6611C81.4095 92.6303 86.6348 87.1394 86.6348 80.3823V12.472C86.6348 5.68407 80.8412 0.187012 73.6827 0.187012ZM80.7115 80.3514C80.7115 84.502 77.6418 86.8182 74.1645 86.8182H12.7703C9.31151 86.8182 6.22328 84.8417 6.22328 80.617V12.5461C6.22328 8.31525 8.88534 6.13495 12.6345 6.13495H74.2942C77.3762 6.13495 80.7053 9.01936 80.7053 12.5276C80.7053 16.0358 80.7115 76.2008 80.7115 80.3514Z" fill="#434343"/>
<path fill-rule="evenodd" clip-rule="evenodd" d="M12.5294 80.3821H74.2941V12.4409H12.5294V80.3821ZM43.4118 37.1468C50.2306 37.1468 55.7647 42.6809 55.7647 49.4997H61.9412V55.6762H54.0538C51.9106 59.3512 47.9762 61.8527 43.4118 61.8527C36.5929 61.8527 31.0588 56.3186 31.0588 49.4997C31.0588 42.6809 36.5929 37.1468 43.4118 37.1468Z" fill="#434343"/>
</svg>
