<svg xmlns="http://www.w3.org/2000/svg" width="87" height="99" viewBox="0 0 87 99" fill="none">
<path fill-rule="evenodd" clip-rule="evenodd" d="M74.3002 6.13477H12.6405C8.89143 6.13477 6.22937 8.32124 6.22937 12.5459V80.6168C6.22937 84.8415 9.3176 86.818 12.7764 86.818H74.1705C77.6417 86.818 80.7176 84.5018 80.7176 80.3512V12.5336C80.7176 9.02535 77.3823 6.13477 74.3002 6.13477ZM74.2941 80.3821H12.5294V12.4409H74.2941V80.3821Z" fill="white"/>
<ellipse cx="47" cy="49.5" rx="20" ry="17.5" fill="white"/>
<path fill-rule="evenodd" clip-rule="evenodd" d="M73.6826 0.187012H13.5176C6.36528 0.187012 0.176453 5.69025 0.176453 12.472V80.3823C0.176453 87.1703 5.55616 92.6673 12.7023 92.6673H12.7765V98.9117H24.8823V92.6673H61.9412V98.9117H74.2941V92.6611C81.4094 92.6303 86.6347 87.1394 86.6347 80.3823V12.472C86.6347 5.68407 80.8412 0.187012 73.6826 0.187012ZM80.7115 80.3514C80.7115 84.502 77.6417 86.8182 74.1644 86.8182H12.7703C9.31145 86.8182 6.22322 84.8417 6.22322 80.617V12.5461C6.22322 8.31525 8.88528 6.13495 12.6344 6.13495H74.2941C77.3762 6.13495 80.7053 9.01936 80.7053 12.5276C80.7053 16.0358 80.7115 76.2008 80.7115 80.3514Z" fill="#434343"/>
<path fill-rule="evenodd" clip-rule="evenodd" d="M12.5294 80.3821H74.2941V12.4409H12.5294V80.3821ZM43.4118 37.1468C50.2306 37.1468 55.7647 42.6809 55.7647 49.4997H61.9412V55.6762H54.0538C51.9106 59.3512 47.9762 61.8527 43.4118 61.8527C36.5929 61.8527 31.0588 56.3186 31.0588 49.4997C31.0588 42.6809 36.5929 37.1468 43.4118 37.1468Z" fill="#434343"/>
</svg>