<svg fill="#fff" height="200px" width="200px" version="1.1" id="Layer_1" xmlns="http://www.w3.org/2000/svg" xmlns:xlink="http://www.w3.org/1999/xlink" viewBox="0 0 512.006 512.006" xml:space="preserve" stroke="#febebe"><g id="SVGRepo_bgCarrier" stroke-width="0"></g><g id="SVGRepo_tracerCarrier" stroke-linecap="round" stroke-linejoin="round"></g><g id="SVGRepo_iconCarrier"> <g> <g> <g> <path d="M509.17,224.055L261.703,2.189c-3.251-2.918-8.149-2.918-11.401,0L2.836,224.055c-1.801,1.613-2.833,3.925-2.833,6.349 v85.333v85.333v85.333c0,3.371,1.98,6.417,5.06,7.791c3.046,1.382,6.665,0.811,9.173-1.442l241.766-216.755L497.77,492.753 c1.604,1.434,3.644,2.185,5.7,2.185c1.178,0,2.364-0.239,3.473-0.742c3.081-1.374,5.06-4.42,5.06-7.791v-85.333v-85.333v-85.333 C512.003,227.981,510.971,225.668,509.17,224.055z M494.936,467.298L261.703,258.189c-1.621-1.459-3.661-2.185-5.7-2.185 c-2.039,0-4.079,0.725-5.7,2.185L17.07,467.298v-62.413l238.933-214.221l238.933,214.221V467.298z M494.936,296.631 L261.703,87.522c-3.251-2.918-8.149-2.918-11.401,0L17.07,296.631V234.21L256.003,19.998L494.936,234.21V296.631z"></path> <path d="M350.77,375.522l-58.82-6.229l-28.297-57.327c-2.867-5.837-12.433-5.837-15.3,0l-28.297,57.327l-58.82,6.229 c-3.166,0.333-5.88,2.406-7.049,5.376c-1.161,2.97-0.572,6.332,1.536,8.73l42.095,48.051l-9.984,64.486 c-0.495,3.243,0.905,6.485,3.601,8.337c2.714,1.86,6.229,2.005,9.071,0.375l55.501-31.71l55.492,31.71 c1.323,0.751,2.782,1.126,4.241,1.126c1.69,0,3.379-0.503,4.83-1.502c2.697-1.852,4.096-5.094,3.601-8.337l-9.984-64.486 l42.095-48.051c2.108-2.398,2.697-5.76,1.536-8.73C356.65,377.929,353.936,375.855,350.77,375.522z"></path> </g> </g> </g> </g></svg>