<svg width="219" height="219" viewBox="0 0 219 219" fill="none" xmlns="http://www.w3.org/2000/svg">
<path d="M30.1194 87.6489C30.1194 58.9971 40.8395 39.2336 56.0051 26.5984C71.2295 13.9142 91.0936 8.28564 109.5 8.28564C127.906 8.28564 147.771 13.9142 162.995 26.5984C178.161 39.2336 188.881 58.9971 188.881 87.6489C188.881 97.6036 185.008 108.88 178.746 120.68C172.499 132.45 163.972 144.564 154.877 156.153C145.786 167.737 136.169 178.745 127.756 188.318C127.255 188.888 126.759 189.453 126.266 190.013C119.447 197.769 113.474 204.563 109.421 209.82C106.38 206.203 102.492 201.797 98.0938 196.813C95.656 194.051 93.0614 191.11 90.3674 188.028C81.8673 178.305 72.3151 167.101 63.3558 155.39C54.3915 143.672 46.0553 131.49 39.9677 119.812C33.8615 108.099 30.1194 97.0824 30.1194 87.6489Z" fill="white" stroke="black" stroke-width="4"/>
<path fill-rule="evenodd" clip-rule="evenodd" d="M140.683 42.187H80.5177C73.3653 42.187 67.1765 47.6902 67.1765 54.472V122.382C67.1765 129.17 72.5562 134.667 79.7024 134.667H79.7765V140.912H91.8824V134.667H128.941V140.912H141.294V134.661C148.409 134.63 153.635 129.139 153.635 122.382V54.472C153.635 47.6841 147.841 42.187 140.683 42.187ZM147.712 122.351C147.712 126.502 144.642 128.818 141.164 128.818H79.7703C76.3115 128.818 73.2233 126.842 73.2233 122.617V54.5461C73.2233 50.3152 75.8853 48.135 79.6345 48.135H141.294C144.376 48.135 147.705 51.0194 147.705 54.5276C147.705 58.0358 147.712 118.201 147.712 122.351Z" fill="#434343"/>
<path fill-rule="evenodd" clip-rule="evenodd" d="M79.5294 122.382H141.294V54.4409H79.5294V122.382ZM110.412 79.1468C117.231 79.1468 122.765 84.6809 122.765 91.4997H128.941V97.6762H121.054C118.911 101.351 114.976 103.853 110.412 103.853C103.593 103.853 98.0588 98.3186 98.0588 91.4997C98.0588 84.6809 103.593 79.1468 110.412 79.1468Z" fill="#434343"/>
<path d="M30.1194 87.6489C30.1194 58.9971 40.8395 39.2336 56.0051 26.5984C71.2295 13.9142 91.0936 8.28564 109.5 8.28564C127.906 8.28564 147.771 13.9142 162.995 26.5984C178.161 39.2336 188.881 58.9971 188.881 87.6489C188.881 97.6036 185.008 108.88 178.746 120.68C172.499 132.45 163.972 144.564 154.877 156.153C145.786 167.737 136.169 178.745 127.756 188.318C127.255 188.888 126.759 189.453 126.266 190.013C119.447 197.769 113.474 204.563 109.421 209.82C106.38 206.203 102.492 201.797 98.0938 196.813C95.656 194.051 93.0614 191.11 90.3674 188.028C81.8673 178.305 72.3151 167.101 63.3558 155.39C54.3915 143.672 46.0553 131.49 39.9677 119.812C33.8615 108.099 30.1194 97.0824 30.1194 87.6489Z" fill="white" stroke="black" stroke-width="4"/>
<path d="M60.7344 41.7295V140.249H159.242V41.7295H60.7344Z" fill="white"/>
<path d="M103.97 131.401L112.823 140.27H102.104L90.5235 128.814H97.4384C99.9029 128.814 102.248 129.8 103.97 131.401ZM100.884 53.0613C104.688 53.0613 107.894 56.2651 107.894 60.0815C107.894 63.9002 104.688 66.9797 100.884 66.9797C97.0556 66.9797 93.9929 63.9002 93.9929 60.0815C93.9929 56.2651 97.0556 53.0613 100.884 53.0613ZM146.943 116.743L144.479 110.216C143.378 107.505 140.914 105.658 137.827 105.658H136.727V49.367H83.2736V80.5295H90.2842L98.2998 70.5519C99.9029 68.7048 102.367 67.4725 105.071 67.4725H122.203C124.907 67.4725 127.251 68.9488 128.472 71.2913L133.52 80.898C133.783 81.2689 133.903 81.7617 133.903 82.3767C133.903 84.1018 132.42 85.5805 130.697 85.5805C129.333 85.5805 128.352 84.9632 127.73 83.8554L123.184 75.11H115.79L121.461 89.2748L123.184 107.383H137.827C140.172 107.383 142.014 108.859 142.876 110.831L144.479 115.02H119.356C117.513 115.02 115.91 113.664 115.79 111.816L114.068 95.9265L100.501 124.01C99.7832 125.613 98.0605 126.721 96.0745 126.721H89.5425L106.172 92.3542L101.004 79.4217L96.0745 85.4561C94.8543 87.0592 92.7487 88.167 90.5235 88.167H83.2736V128.814L94.8543 140.27H60.7344V41.7295H159.266V140.27H148.188L136.727 128.814V116.743H146.943Z" fill="#00B06B"/>
</svg>
