<svg width="219" height="219" viewBox="0 0 219 219" fill="none" xmlns="http://www.w3.org/2000/svg">
<path d="M30.1194 87.6489C30.1194 58.9971 40.8395 39.2336 56.0051 26.5984C71.2295 13.9142 91.0936 8.28564 109.5 8.28564C127.906 8.28564 147.771 13.9142 162.995 26.5984C178.161 39.2336 188.881 58.9971 188.881 87.6489C188.881 97.6036 185.008 108.88 178.746 120.68C172.499 132.45 163.972 144.564 154.877 156.153C145.786 167.737 136.169 178.745 127.756 188.318C127.255 188.888 126.759 189.453 126.266 190.013C119.447 197.769 113.474 204.563 109.421 209.82C106.38 206.203 102.492 201.797 98.0938 196.813C95.656 194.051 93.0614 191.11 90.3674 188.028C81.8673 178.305 72.3151 167.101 63.3558 155.39C54.3915 143.672 46.0553 131.49 39.9677 119.812C33.8615 108.099 30.1194 97.0824 30.1194 87.6489Z" fill="white" stroke="black" stroke-width="4"/>
<path d="M165 90C165 100.878 161.774 111.512 155.731 120.556C149.687 129.601 141.098 136.651 131.048 140.813C120.998 144.976 109.939 146.065 99.27 143.943C88.6011 141.821 78.801 136.583 71.1091 128.891C63.4173 121.199 58.179 111.399 56.0568 100.73C53.9346 90.061 55.0238 79.0023 59.1866 68.9524C63.3495 58.9025 70.399 50.3126 79.4437 44.2692C88.4884 38.2257 99.122 35 110 35C117.223 35 124.375 36.4226 131.048 39.1866C137.721 41.9506 143.784 46.0019 148.891 51.1091C153.998 56.2163 158.049 62.2795 160.813 68.9524C163.577 75.6253 165 82.7773 165 90ZM112.32 74.5566C112.326 73.0555 111.737 71.6131 110.683 70.5444C109.629 69.4758 108.194 68.8678 106.693 68.8531L85.5116 68.7142C84.0104 68.7086 82.568 69.2972 81.4994 70.3515C80.4307 71.4058 79.8227 72.8402 79.808 74.3413L79.5579 112.286C79.5542 113.786 80.1436 115.227 81.1978 116.294C82.2519 117.361 83.6852 117.968 85.1851 117.983L106.36 118.129C107.861 118.134 109.303 117.546 110.372 116.491C111.441 115.437 112.049 114.003 112.063 112.502L112.32 74.5566ZM90.0897 110.723C90.8157 110.721 91.5116 110.433 92.0256 109.92C92.5396 109.407 92.8301 108.712 92.8338 107.986L92.9727 88.0756C92.9755 87.7138 92.9068 87.355 92.7707 87.0197C92.6345 86.6844 92.4335 86.3793 92.1793 86.1218C91.925 85.8643 91.6225 85.6595 91.2889 85.5191C90.9554 85.3788 90.5974 85.3056 90.2356 85.3038H90.2217C89.4945 85.3038 88.7968 85.5917 88.2813 86.1046C87.7658 86.6175 87.4743 87.3137 87.4707 88.0409L87.3317 107.951C87.3299 108.312 87.3992 108.671 87.5358 109.005C87.6724 109.34 87.8735 109.644 88.1276 109.901C88.3818 110.157 88.6841 110.362 89.0171 110.501C89.3502 110.641 89.7076 110.714 90.0689 110.716H90.0897V110.723ZM96.0642 73.848C96.647 73.8522 97.2155 74.0292 97.6978 74.3566C98.18 74.684 98.5542 75.1471 98.7731 75.6873C98.992 76.2275 99.0458 76.8205 98.9275 77.3912C98.8092 77.9619 98.5243 78.4848 98.1088 78.8935C97.6932 79.3022 97.1658 79.5785 96.5931 79.6873C96.0205 79.7961 95.4285 79.7326 94.892 79.5048C94.3555 79.277 93.8986 78.8951 93.5792 78.4076C93.2599 77.92 93.0923 77.3486 93.0978 76.7658C93.1051 75.9858 93.4216 75.2406 93.9777 74.6936C94.5338 74.1466 95.2842 73.8425 96.0642 73.848ZM93.1881 63.8304C93.1867 64.3748 93.3469 64.9073 93.6483 65.3606C93.9498 65.814 94.379 66.1677 94.8815 66.3769C95.3841 66.5862 95.9375 66.6417 96.4716 66.5363C97.0057 66.431 97.4965 66.1695 97.8819 65.785C98.2674 65.4006 98.5301 64.9104 98.6368 64.3766C98.7435 63.8427 98.6894 63.2892 98.4814 62.7861C98.2734 62.283 97.9208 61.853 97.4683 61.5504C97.0157 61.2478 96.4835 61.0863 95.9391 61.0863C95.2107 61.0863 94.512 61.3752 93.9963 61.8896C93.4806 62.404 93.1899 63.1019 93.1881 63.8304ZM96.8006 58.238C97.2315 58.5704 97.7514 58.7675 98.2944 58.8044C98.8374 58.8413 99.3792 58.7163 99.8511 58.4452C100.323 58.1742 100.704 57.7692 100.946 57.2816C101.187 56.7939 101.279 56.2455 101.209 55.7058C101.139 55.1661 100.911 54.6592 100.552 54.2494C100.194 53.8396 99.7225 53.5452 99.197 53.4035C98.6715 53.2618 98.1158 53.2792 97.6002 53.4535C97.0846 53.6277 96.6322 53.9509 96.3004 54.3823C96.0785 54.6677 95.9154 54.9942 95.8204 55.343C95.7254 55.6918 95.7005 56.0559 95.747 56.4144C95.7935 56.7729 95.9105 57.1186 96.0914 57.4316C96.2722 57.7446 96.5132 58.0186 96.8006 58.238ZM104.345 108.062L104.477 88.1521C104.48 87.7902 104.411 87.4314 104.275 87.0961C104.139 86.7608 103.938 86.4557 103.684 86.1982C103.429 85.9407 103.127 85.7359 102.793 85.5956C102.46 85.4552 102.102 85.382 101.74 85.3802C101.014 85.3802 100.31 85.6671 99.795 86.1786C99.2797 86.69 98.9875 87.3844 98.982 88.1104L98.85 108.028C98.8463 108.756 99.1316 109.456 99.6434 109.975C100.155 110.493 100.852 110.787 101.58 110.793H101.601C102.327 110.793 103.024 110.506 103.539 109.994C104.054 109.483 104.34 108.788 104.345 108.062ZM102.838 52.3399C102.838 52.884 102.999 53.4159 103.301 53.8683C103.604 54.3207 104.033 54.6733 104.536 54.8815C105.039 55.0897 105.592 55.1442 106.125 55.0381C106.659 54.9319 107.149 54.6699 107.534 54.2852C107.919 53.9004 108.181 53.4103 108.287 52.8766C108.393 52.343 108.338 51.7898 108.13 51.2871C107.922 50.7844 107.569 50.3548 107.117 50.0525C106.665 49.7502 106.133 49.5889 105.589 49.5889C104.859 49.5889 104.159 49.8787 103.643 50.3946C103.127 50.9105 102.838 51.6103 102.838 52.3399ZM110.521 57.7447C110.854 58.1751 111.306 58.4973 111.822 58.6706C112.337 58.8439 112.892 58.8605 113.417 58.7184C113.942 58.5762 114.413 58.2817 114.771 57.8719C115.128 57.4622 115.357 56.9556 115.426 56.4163C115.496 55.8769 115.405 55.329 115.163 54.8417C114.922 54.3544 114.541 53.9495 114.07 53.6784C113.599 53.4072 113.057 53.2818 112.515 53.3181C111.972 53.3543 111.452 53.5506 111.021 53.8821C110.734 54.1021 110.492 54.3768 110.312 54.6904C110.131 55.004 110.014 55.3503 109.967 55.7093C109.921 56.0684 109.946 56.433 110.041 56.7824C110.136 57.1317 110.299 57.4588 110.521 57.7447ZM112.487 63.8304C112.486 64.3748 112.646 64.9073 112.947 65.3606C113.249 65.814 113.678 66.1677 114.181 66.3769C114.683 66.5862 115.236 66.6417 115.771 66.5363C116.305 66.431 116.795 66.1695 117.181 65.785C117.566 65.4006 117.829 64.9104 117.936 64.3766C118.042 63.8427 117.988 63.2892 117.78 62.7861C117.572 62.283 117.22 61.853 116.767 61.5504C116.315 61.2478 115.783 61.0863 115.238 61.0863C114.51 61.0863 113.811 61.3752 113.295 61.8896C112.78 62.404 112.489 63.1019 112.487 63.8304ZM140.789 115.204C142.21 114.713 143.378 113.679 144.038 112.329C144.698 110.979 144.796 109.422 144.312 108L131.974 72.1182C131.481 70.6991 130.447 69.5327 129.097 68.874C127.747 68.2153 126.191 68.1178 124.769 68.603L117.301 71.1734C117.65 72.2813 117.823 73.4369 117.815 74.5983L117.802 76.7033C118.453 76.8018 119.052 77.1158 119.504 77.5952C119.956 78.0745 120.234 78.6914 120.294 79.3474C120.354 80.0034 120.193 80.6606 119.835 81.2139C119.478 81.7673 118.945 82.1848 118.323 82.3999C118.142 82.4639 117.956 82.5104 117.767 82.5388L117.711 90.4168C117.925 90.6716 118.09 90.9636 118.198 91.2782L124.672 110.112C124.79 110.453 124.839 110.815 124.817 111.176C124.795 111.536 124.702 111.889 124.544 112.214C124.386 112.539 124.165 112.829 123.894 113.069C123.624 113.308 123.308 113.492 122.967 113.61C122.625 113.727 122.264 113.777 121.903 113.755C121.542 113.733 121.189 113.64 120.865 113.481C120.54 113.323 120.249 113.102 120.01 112.832C119.77 112.561 119.587 112.246 119.469 111.904L117.607 106.472L117.565 112.536C117.545 115.395 116.426 118.136 114.439 120.192C115.165 121.127 116.166 121.813 117.3 122.153C118.435 122.493 119.647 122.47 120.768 122.089L140.789 115.204ZM135.551 106.374C135.691 106.721 135.759 107.092 135.75 107.465C135.742 107.838 135.657 108.206 135.502 108.545C135.347 108.885 135.125 109.19 134.848 109.44C134.572 109.691 134.247 109.883 133.894 110.005C133.541 110.126 133.167 110.174 132.794 110.146C132.422 110.118 132.059 110.015 131.728 109.842C131.397 109.67 131.104 109.431 130.868 109.142C130.632 108.853 130.458 108.519 130.355 108.16L123.88 89.3331C123.744 88.9876 123.679 88.6181 123.689 88.2469C123.7 87.8756 123.785 87.5103 123.94 87.173C124.096 86.8356 124.318 86.5332 124.593 86.2839C124.868 86.0347 125.191 85.8437 125.542 85.7227C125.893 85.6016 126.265 85.5528 126.636 85.5793C127.006 85.6058 127.367 85.7071 127.698 85.877C128.028 86.0469 128.32 86.2818 128.557 86.5678C128.794 86.8537 128.971 87.1847 129.077 87.5407L135.551 106.374Z" fill="#FF6B00"/>
</svg>
