<svg width="219" height="219" viewBox="0 0 219 219" fill="none" xmlns="http://www.w3.org/2000/svg">
<path d="M30.1194 87.6489C30.1194 58.9971 40.8395 39.2336 56.0051 26.5984C71.2295 13.9142 91.0936 8.28564 109.5 8.28564C127.906 8.28564 147.771 13.9142 162.995 26.5984C178.161 39.2336 188.881 58.9971 188.881 87.6489C188.881 97.6036 185.008 108.88 178.746 120.68C172.499 132.45 163.972 144.564 154.877 156.153C145.786 167.737 136.169 178.745 127.756 188.318C127.255 188.888 126.759 189.453 126.266 190.013C119.447 197.769 113.474 204.563 109.421 209.82C106.38 206.203 102.492 201.797 98.0938 196.813C95.656 194.051 93.0614 191.11 90.3674 188.028C81.8673 178.305 72.3151 167.101 63.3558 155.39C54.3915 143.672 46.0553 131.49 39.9677 119.812C33.8615 108.099 30.1194 97.0824 30.1194 87.6489Z" fill="white" stroke="black" stroke-width="4"/>
<g clip-path="url(#clip0_209_3155)">
<path d="M103.881 64.1069C113.823 54.1649 129.943 54.1649 139.885 64.1069C149.827 74.049 149.827 90.1686 139.885 100.111C132.532 107.463 121.808 109.373 112.704 105.861L111.65 105.431L111.573 105.412H109.183V111.594C109.183 114.129 107.256 116.214 104.787 116.464L104.287 116.49H98.1046V122.672C98.1046 125.207 96.178 127.292 93.7093 127.543L93.2087 127.568H77.61C75.5713 127.568 73.8922 126.025 73.6774 124.044L73.6542 123.613V113.385C73.6542 112.021 74.1281 110.707 74.9847 109.661L75.375 109.23L96.9191 87.6858L96.9551 87.5398C96.9652 87.459 96.967 87.3497 96.9412 87.2232C95.2901 79.1394 97.5985 70.3896 103.881 64.1069ZM120.498 75.1852C118.204 77.4795 118.204 81.1993 120.498 83.4937C122.793 85.788 126.513 85.788 128.807 83.4937C131.101 81.1993 131.101 77.4795 128.807 75.1852C126.513 72.8908 122.793 72.8908 120.498 75.1852Z" fill="#09244B"/>
</g>
<defs>
<clipPath id="clip0_209_3155">
<rect width="94" height="94" fill="white" transform="translate(63 47)"/>
</clipPath>
</defs>
</svg>
