<svg xmlns="http://www.w3.org/2000/svg" width="219" height="219" viewBox="0 0 219 219" fill="none">
<path d="M30.1194 87.6489C30.1194 58.9971 40.8395 39.2336 56.0051 26.5984C71.2295 13.9142 91.0936 8.28564 109.5 8.28564C127.906 8.28564 147.771 13.9142 162.995 26.5984C178.161 39.2336 188.881 58.9971 188.881 87.6489C188.881 97.6036 185.008 108.88 178.746 120.68C172.499 132.45 163.972 144.564 154.877 156.153C145.786 167.737 136.169 178.745 127.756 188.318C127.255 188.888 126.759 189.453 126.266 190.013C119.447 197.769 113.474 204.563 109.421 209.82C106.38 206.203 102.492 201.797 98.0938 196.813C95.656 194.051 93.0614 191.11 90.3674 188.028C81.8673 178.305 72.3151 167.101 63.3558 155.39C54.3915 143.672 46.0553 131.49 39.9677 119.812C33.8615 108.099 30.1194 97.0824 30.1194 87.6489Z" fill="white" stroke="black" stroke-width="4"/>
<path d="M102.729 53.5671C114.152 42.1443 132.672 42.1443 144.095 53.5671C155.517 64.9899 155.517 83.5102 144.095 94.933C135.647 103.381 123.325 105.575 112.866 101.539L111.655 101.046L111.566 101.024H108.82V108.127C108.82 111.039 106.606 113.435 103.77 113.723L103.195 113.752H96.0919V120.855C96.0919 123.767 93.8785 126.163 91.042 126.451L90.4669 126.48H72.545C70.2026 126.48 68.2735 124.707 68.0267 122.43L68 121.935V110.184C68 108.617 68.5445 107.107 69.5287 105.906L69.9771 105.411L94.73 80.6577L94.7712 80.49C94.7829 80.3971 94.7849 80.2716 94.7553 80.1262C92.8583 70.8384 95.5105 60.7855 102.729 53.5671ZM121.821 66.2953C119.185 68.9313 119.185 73.2052 121.821 75.8412C124.457 78.4773 128.731 78.4773 131.367 75.8412C134.003 73.2052 134.003 68.9313 131.367 66.2953C128.731 63.6592 124.457 63.6592 121.821 66.2953Z" fill="#09244B"/>
</svg>