<svg width="219" height="219" viewBox="0 0 219 219" fill="none" xmlns="http://www.w3.org/2000/svg">
<path d="M30.1194 87.6489C30.1194 58.9971 40.8395 39.2336 56.0051 26.5984C71.2295 13.9142 91.0936 8.28564 109.5 8.28564C127.906 8.28564 147.771 13.9142 162.995 26.5984C178.161 39.2336 188.881 58.9971 188.881 87.6489C188.881 97.6036 185.008 108.88 178.746 120.68C172.499 132.45 163.972 144.564 154.877 156.153C145.786 167.737 136.169 178.745 127.756 188.318C127.255 188.888 126.759 189.453 126.266 190.013C119.447 197.769 113.474 204.563 109.421 209.82C106.38 206.203 102.492 201.797 98.0938 196.813C95.656 194.051 93.0614 191.11 90.3674 188.028C81.8673 178.305 72.3151 167.101 63.3558 155.39C54.3915 143.672 46.0553 131.49 39.9677 119.812C33.8615 108.099 30.1194 97.0824 30.1194 87.6489Z" fill="white" stroke="black" stroke-width="4"/>
<path fill-rule="evenodd" clip-rule="evenodd" d="M140.683 42.187H80.5177C73.3653 42.187 67.1765 47.6902 67.1765 54.472V122.382C67.1765 129.17 72.5562 134.667 79.7024 134.667H79.7765V140.912H91.8824V134.667H128.941V140.912H141.294V134.661C148.409 134.63 153.635 129.139 153.635 122.382V54.472C153.635 47.6841 147.841 42.187 140.683 42.187ZM147.712 122.351C147.712 126.502 144.642 128.818 141.164 128.818H79.7703C76.3115 128.818 73.2233 126.842 73.2233 122.617V54.5461C73.2233 50.3152 75.8853 48.135 79.6345 48.135H141.294C144.376 48.135 147.705 51.0194 147.705 54.5276C147.705 58.0358 147.712 118.201 147.712 122.351Z" fill="#434343"/>
<path fill-rule="evenodd" clip-rule="evenodd" d="M79.5294 122.382H141.294V54.4409H79.5294V122.382ZM110.412 79.1468C117.231 79.1468 122.765 84.6809 122.765 91.4997H128.941V97.6762H121.054C118.911 101.351 114.976 103.853 110.412 103.853C103.593 103.853 98.0588 98.3186 98.0588 91.4997C98.0588 84.6809 103.593 79.1468 110.412 79.1468Z" fill="#434343"/>
</svg>
