<svg width="219" height="219" viewBox="0 0 219 219" fill="none" xmlns="http://www.w3.org/2000/svg">
<path d="M109.5 6.28564C71.9405 6.28564 28.1194 29.2343 28.1194 87.6489C28.1194 127.286 90.7202 190.097 109.5 213.045C109.5 156 109.5 129.373 109.5 87.6489C109.5 29.2343 109.5 78 109.5 6.28564Z" fill="#80D1FF"/>
<path d="M109.5 6.28564C109.5 55 109.5 33.5854 109.5 92C109.5 131.637 109.5 172 109.5 213.045C126.194 190.097 190.881 129.373 190.881 87.6489C190.881 29.2343 147.06 6.28564 109.5 6.28564Z" fill="#FF9649"/>
<path d="M60.7344 36.7295V135.249H159.242V36.7295H60.7344Z" fill="white"/>
<path d="M103.97 126.401L112.823 135.27H102.104L90.5235 123.814H97.4384C99.9029 123.814 102.248 124.8 103.97 126.401ZM100.884 48.0613C104.688 48.0613 107.894 51.2651 107.894 55.0815C107.894 58.9002 104.688 61.9797 100.884 61.9797C97.0556 61.9797 93.9929 58.9002 93.9929 55.0815C93.9929 51.2651 97.0556 48.0613 100.884 48.0613ZM146.943 111.743L144.479 105.216C143.378 102.505 140.914 100.658 137.827 100.658H136.727V44.367H83.2736V75.5295H90.2842L98.2998 65.5519C99.9029 63.7048 102.367 62.4725 105.071 62.4725H122.203C124.907 62.4725 127.251 63.9488 128.472 66.2913L133.52 75.898C133.783 76.2689 133.903 76.7617 133.903 77.3767C133.903 79.1018 132.42 80.5805 130.697 80.5805C129.333 80.5805 128.352 79.9632 127.73 78.8554L123.184 70.11H115.79L121.461 84.2748L123.184 102.383H137.827C140.172 102.383 142.014 103.859 142.876 105.831L144.479 110.02H119.356C117.513 110.02 115.91 108.664 115.79 106.816L114.068 90.9265L100.501 119.01C99.7832 120.613 98.0605 121.721 96.0745 121.721H89.5425L106.172 87.3542L101.004 74.4217L96.0745 80.4561C94.8543 82.0592 92.7487 83.167 90.5235 83.167H83.2736V123.814L94.8543 135.27H60.7344V36.7295H159.266V135.27H148.188L136.727 123.814V111.743H146.943Z" fill="#00B06B"/>
<path d="M30.1194 87.6489C30.1194 58.9971 40.8395 39.2336 56.0051 26.5984C71.2295 13.9142 91.0936 8.28564 109.5 8.28564C127.906 8.28564 147.771 13.9142 162.995 26.5984C178.161 39.2336 188.881 58.9971 188.881 87.6489C188.881 97.6036 185.008 108.88 178.746 120.68C172.499 132.45 163.972 144.564 154.877 156.153C145.786 167.737 136.169 178.745 127.756 188.318C127.255 188.888 126.759 189.453 126.266 190.013C119.447 197.769 113.474 204.563 109.421 209.82C106.38 206.203 102.492 201.797 98.0938 196.813C95.656 194.051 93.0614 191.11 90.3674 188.028C81.8673 178.305 72.3151 167.101 63.3558 155.39C54.3915 143.672 46.0553 131.49 39.9677 119.812C33.8615 108.099 30.1194 97.0824 30.1194 87.6489Z" stroke="black" stroke-width="4"/>
</svg>
